<svg xmlns="http://www.w3.org/2000/svg" xmlns:xlink="http://www.w3.org/1999/xlink" width="321" height="278" viewBox="0 0 321 278">
    <defs>
        <path id="gye40fd2sa" d="M0.191 0.018L10.174 0.018 10.174 10 0.191 10z"/>
        <path id="6pazqmo5tc" d="M0.166 0.631L11.754 0.631 11.754 12.302 0.166 12.302z"/>
        <path id="gz70cfwt5e" d="M0 0.568L11.534 0.568 11.534 12.101 0 12.101z"/>
    </defs>
    <g fill="none" fill-rule="evenodd">
        <path fill="#1F5AA9" d="M82.139 70.67c42.237-42.237 110.717-42.237 152.953 0 42.236 42.237 42.236 110.716 0 152.953-42.236 42.236-110.716 42.236-152.953 0-42.237-42.237-42.237-110.716 0-152.953"/>
        <path stroke="#37BDB1" stroke-width="10" d="M315.63 188.525s-1.506.637-4.336 1.647"/>
        <path stroke="#37BDB1" stroke-dasharray="20 20" stroke-width="6" d="M302.368 193.08c-17.273 5.156-50.016 12.478-89.604 9.366-59.04-4.64-88.816-55.3-111.89-70.382-21.628-14.139-52.212-34.58-68.707-8.895-15.726 24.492 29.262 43.7 40.863 24.621 8.021-13.187 4.77-35.062 1.995-47.306"/>
        <path stroke="#37BDB1" stroke-width="10" d="M73.912 95.922c-.732-2.8-1.269-4.463-1.269-4.463"/>
        <path fill="#794E1F" d="M233.515 173.146l-78.488 46.285-78.489-46.285c0-.043.003-.087.014-.13.065-.293 4.396-3.91 11.004-9.28.062-.05.113-.101.177-.152 21.675-17.595 67.289-53.625 67.289-53.625s45.633 36.038 67.289 53.625c6.703 5.445 11.116 9.125 11.18 9.43.015.043.024.088.024.132"/>
        <path fill="#FFF" d="M168.355 256.387c-.712-7.785-7.636-13.523-15.468-12.816-6.846.617-12.273 6.009-12.893 12.816h-23.677c-7.254-.009-13.134-5.854-13.143-13.065V76.451c.008-7.211 5.888-13.056 13.143-13.064h23.678c.72 7.784 7.65 13.515 15.481 12.801 6.835-.624 12.251-6.007 12.879-12.801h23.675c7.256.007 13.137 5.852 13.143 13.064v166.871c-.006 7.209-5.881 13.052-13.132 13.065h-23.686z"/>
        <path fill="#B6D7F2" d="M191.825 62.386h-24.772c0 7.122-5.763 12.895-12.872 12.895-7.108 0-12.87-5.773-12.87-12.895h-24.759c-7.94 0-14.378 6.437-14.378 14.378v167.24c0 7.944 6.427 14.383 14.356 14.383h24.773c0-7.123 5.762-12.895 12.871-12.895 7.108 0 12.871 5.773 12.871 12.895h24.751c7.94 0 14.378-6.438 14.378-14.379V76.77c0-7.941-6.423-14.38-14.349-14.383m.55 2c6.513.007 11.792 5.291 11.8 11.814v167.371c-.008 6.523-5.287 11.808-11.8 11.815h-22.444c-1.42-8.435-9.4-14.119-17.824-12.697-6.496 1.096-11.585 6.194-12.68 12.697h-22.454c-6.514-.007-11.792-5.292-11.799-11.815V76.201c.007-6.522 5.285-11.807 11.8-11.814h22.453c1.42 8.433 9.4 14.117 17.823 12.695 6.496-1.095 11.586-6.191 12.681-12.695h22.243"/>
        <path stroke="#B6D7F2" stroke-linecap="round" stroke-width="10" d="M203.74 194.454L203.74 194.454"/>
        <path stroke="#B6D7F2" stroke-dasharray="0 24" stroke-linecap="round" stroke-width="10" d="M197.174 194.387L108.174 194.387"/>
        <path stroke="#B6D7F2" stroke-linecap="round" stroke-width="10" d="M104.741 194.454L104.741 194.454"/>
        <text fill="#057CB0" font-family="ProximaNova-Bold, Proxima Nova" font-size="23.796" font-weight="bold">
            <tspan x="182.922" y="210.763">4948</tspan>
        </text>
        <path fill="#010101" d="M172.174 170.387v-1h1v.273c-.868.104-.868.197-.734.197.133 0 .118-.091.118.53h-.384zm0-.687c.492.19.42.286.263.286-.117.006-.217-.082-.224-.199v-.01l-1.04.229v-.137l1-.213v-.269 1-.687zm1-.037c.01-.323-.244-.593-.567-.603-.323-.01-.593.244-.603.567-.01.323.244.593.567.603l.02.001c.314.007.574-.241.583-.555v-.013zm-.001 0c-.007.387-.326.696-.714.688-.387-.007-.695-.326-.688-.714.007-.383.32-.689.704-.688.386 0 .699.312.699.698l-.001.029v-.013zm-1.3-3.23c0-1.228-1.127-1.831-1.338-1.893-.443-.128-.9-.198-1.361-.209v4.056h.678c1.67 0 2.02-1.063 2.02-1.954zm-4.002-18.046c-.05-2.473-.794-3.73-2.212-3.73-1.013 0-1.668.636-1.668 1.624-.028.608.195 1.202.617 1.641l.033.034c.168.17.42.431 1.258.431h1.972zm3.388 8.436c0-.549-.428-2.044-2.4-2.349-.578-.075-1.16-.105-1.741-.087h-.257c-1.45 0-1.805.085-2.45.43-.698.412-1.158 1.132-1.237 1.939v.067c0 1.031.082 2.194 3.973 2.194 3.034.003 4.112-.572 4.112-2.194zm.75-26.09c-.024.689-.28 1.349-.73 1.873l.41.272c.084.051.274.143.257.284v.031c-.016.129-.092.191-.238.194h.364-2.52c-.38 0-.353-.544 0-.609l.05-.016c.969-.249 2.143-.863 2.219-2.353.049-.559-.134-1.113-.506-1.532-.28-.284-.651-.458-1.046-.491-.602 0-.921.148-1.603 3.531-.353 1.681-1.106 2.353-2.614 2.353-.813.02-1.6-.286-2.184-.849l-.051-.048c-.582-.662-.894-1.518-.874-2.4-.002-.982.39-1.924 1.09-2.614-.096-.062-.662-.405-.771-.473-.11-.068-.275-.16-.262-.262 0-.19.123-.245.377-.237h2.94s.06.013.092.016c.233.021.346.075.348.214.009.026.009.054 0 .08-.022.149-.345.69-.345.69h.115-.043c-1.614.424-2.578 1.518-2.578 2.921.008.581.25 1.134.67 1.535l.039.035c.269.234.613.364.969.368.766 0 1.13-1.193 1.525-2.759l.05-.208c.3-1.265.56-2.358 2.286-2.358.953.008 2.564.599 2.564 2.812zm.325 35.654c0 1.882-1.372 3.436-3.398 3.712-.712.098-.762-.5-.762-.5v-6.212h-.896c-2.633 0-4.16.46-4.16 2.812 0 1.236 1.11 2.852 2.686 3.188H166.14l.099.152c.106.036.335.101.372.258.007.021.012.042.015.065 0 .206-.121.291-.377.283-.036 0-.072-.005-.108-.013l-.08-.017c-1.944-.418-3.06-1.852-3.06-3.93 0-2.152 1.73-4.457 4.303-4.457 2.473 0 5.027 1.642 5.027 4.659h.003zm-.16-18.862c.16 2.903-1.05 3.045-1.93 2.862h-5.353c-.701.188-.946.206-.946.582 0 .289.943 1.418.943 1.418h.039c.103-.686.327-.639.35-.489.024.149-.314.489-.314.489h-.098c-1.038-.258-1.86-1.108-1.864-2.147 0-.755.464-1.263 1.289-1.459-.843-.739-1.314-1.812-1.29-2.932 0-1.698.775-2.635 2.22-2.635 2.05.065 3.228 2.075 3.247 6.173h2.02c1.15-.663 1.272-1.721 1.272-2.177 0-.515-.17-1.974-.722-1.974-.023 0-.083.082-.121.139-.183.318-.522.514-.89.516-.51.034-.952-.351-.986-.861-.003-.036-.003-.071-.001-.106 0-.603.439-.988 1.119-.988.84.011 2.016 3.597 2.016 3.597v-.008zm.146-8.382c0 1.411-.641 3.512-2.415 3.512-.595 0-1.23-.369-1.23-1.054-.025-.581.424-1.072 1.004-1.099.03-.002.063-.002.095 0 .413-.013.803.189 1.03.533.076.091.138.171.189.171.516 0 .774-1.261.774-1.805 0-1.889-1.18-2.591-4.347-2.591-.89-.012-1.774.142-2.606.456-.744.338-1.153 1.032-1.212 2.094-.065 1.253.94 2.444 2.5 2.963l.045.015.123.038c.103.036.322.099.358.258.009.019.014.039.016.06.012.198-.116.283-.366.273-.043-.002-.086-.008-.13-.018l-.086-.029c-1.372-.445-2.96-1.268-3.053-3.73 0-3.692 3.184-4.501 4.41-4.501 3.999-.006 4.9 3.304 4.9 4.454zm.014 17.998c0 1.668-1.29 4.148-4.854 4.148-2.171 0-4.48-1.485-4.48-4.235-.038-1.035 1.396-1.667 1.396-1.667h-3.619c-.494-.857-.898-.628-1.032-.189-.03.089-.067.293-.201.317-.258.036-.258-.235-.37-.825v-1.586c.112-.392.749-.717.749-.717H171.3s.168.242-.126.181v-.029c.365-.156.407-.316.438-.479.028-.111.078-.291.21-.312.179-.028.352.351.352.351v.059c-.093 0-.093.6-.044 1.031.02.373.069.744 1.044 1.108v.055c-.896.064-.896.16-1.04.035h-1.45c.978.648 1.594 1.665 1.61 2.777l.04-.023z"/>
        <path fill="#087CB0" d="M171.643 114.47c0-1.504-2.74-3.05-4.032-3.363.119 1.804 1.056 4.168 3.19 4.168.427.038.802-.277.84-.702.002-.034.004-.068.002-.102zm.124 6.917c0-1.893-1.939-2.063-3.751-2.063-3.5 0-4.458.464-4.458 2.163.038.54.24 1.056.577 1.48.748.833 1.179 1.1 3.438 1.1.334 0 1.456 0 1.945-.157 1.46-.371 2.256-1.273 2.256-2.523h-.007zm4.898-14.637c.017.382-.001.765-.052 1.144-.056.15-.464.124-1.031.137l-4.996.113-.862.02-5.176.122c-.388.08-.713.349-.862.717-.032.098-.069.325-.222.348-.274.044-.285-.258-.29-.913v-.41c.004-.007.004-.015 0-.023v-2.282c.005-.652.005-.953.29-.912.154.023.197.258.226.35.09.322.34.574.661.665l.113.02c.101.017.865.024 1.877-.46h1.409c1.804.487 4.368 1 4.368 1h.256c.576-.013.626-.241.114-.5l-.034-.02c-.514-.265-6.298-3.198-6.762-3.413-.662-.311-.873-.311-.864-1.061 0-.584.131-.695.448-.857l.243-.122c.674-.342 3.166-1.66 3.648-1.92l2.79-1.486c.507-.265.452-.506-.124-.53l-2.266-.053c-.575-.014-1.517-.032-2.093-.037h-.13s-1.474-.246-2.03-.218c-.25.02-.5.055-.745.106-.498.149-.754.314-.87.717-.026.1-.07.327-.222.353-.275.039-.286-.258-.304-.916v-2.16c.018-.652.018-.954.304-.913.153.024.196.258.222.35.121.389.458.669.861.718.01 0 .017.007.02.015.076.015.15.029.222.036.305.034 5.263.049 8.25-.088h2.262c.245.143.74-.007.853-.412.026-.1.07-.327.221-.348.276-.044-.215.903-.215.903v1.729s.494.427.42.627c-.097.108-.495.216-1.008.436l-2.32 1.098-1.784.972-2.87 1.567c-.49.258-.487.696 0 .954l2.903 1.498 1.837.946 2.2.988c.36.117.707.274 1.03.469.074.062.089.258-.407.536v.258l.49.142zm.508 17.507v.825s-.508.75-1.15 1.305H167.149l-2.267-.5c-.144.006-.287.03-.427.069-.335.148-.609.408-.774.735l-.02.067c-.035.11-.078.258-.185.629h-.044c-.037-.348-.072-.36-.101-.384-.108-.095-.157-.89-.157-.89v-1.742s.06-.516.388.016h.258c.218-.527.434-.54.353-.57v-.044c-.68-.57-1.129-1.862-1.131-2.885 0-1.746 1.288-3.12 3.094-3.656-.017 0 .257-.06.516-.116-.19-.105-.397-.227-.516-.31-.847-.582-3.094-2.32-3.094-5.11 0-1.804 1.33-2.407 2.64-2.407 3.133 0 6.596 2.8 6.596 5.636 0 .88-.316 1.918-1.39 1.918-2.662 0-3.629-3.741-3.823-5.834-.48-.11-.97-.161-1.46-.155-.977 0-1.505.686-1.505 1.603 0 2.006 2.305 3.904 2.42 3.994.28.208.876.936.876.936h.532c2.548 0 4.73 1.522 4.73 4.233 0 .726-.286 2.105-1.484 2.722v.045h4.468c.513-.014.93-.234 1.063-.691.025-.096.065-.306.206-.327.266-.04.266.242.266.855l-.004.033zm-25.001 41.13h-3.984l-8.014-.964v-3.095l8.013-.941h3.986l-.001 5zm-12.998-1.824c.005 1.394-1.3 2.489-2.758 2.118-.737-.188-1.34-.787-1.532-1.522-.381-1.455.704-2.767 2.099-2.772h.01c1.203-.003 2.18.972 2.18 2.176zm13.007-6.176h-4.008v-9h-3v8h-4v-8h-3v9h-4v-15h18l.008 15zm-1.008-29.42l-11.904 3.95 12.904 3.898v5.57l-18-6.653v-5.924l17-6.394v5.554zm1.008-7.58h-18.008v-5h18l.008 5zm0-17h-14.008v8h-4v-13h18l.008 5zm-22.008 66h25v-75h-25v75zm-1 1h27v-77h-27v77z"/>
        <path fill="#FBAF32" d="M233.174 173.52v75.302c-.013 5.276-4.287 9.55-9.563 9.565H85.715c-5.272-.017-9.538-4.294-9.541-9.565V173.52l78.5 46.279 78.5-46.28z"/>
        <path fill="#F79339" d="M230.87 255.378l-50.516-50.516-25.319 14.928-25.328-14.935-50.53 50.531c1.786 1.91 4.283 2.996 6.898 3.001H223.96c2.62-.01 5.118-1.099 6.91-3.009"/>
        <path fill="#B6D7F2" d="M47.698 207.345c-1.691 0-3.063-1.372-3.063-3.063 0-1.692 1.372-3.063 3.063-3.063 1.69 0 3.063 1.371 3.063 3.063 0 1.691-1.372 3.063-3.063 3.063m0-10.633c-4.181 0-7.57 3.39-7.57 7.57s3.389 7.569 7.57 7.569c4.18 0 7.569-3.389 7.569-7.569-.001-4.18-3.39-7.568-7.57-7.57M250.108 238.387c-1.875 0-3.356-1.684-3.017-3.621.217-1.233 1.23-2.245 2.461-2.461 1.938-.34 3.621 1.142 3.621 3.017v.002c0 1.691-1.37 3.063-3.062 3.063h-.003zm.414-11c-4.677 0-8.363 4.241-7.422 9.088.573 2.951 2.952 5.329 5.904 5.902 4.845.942 9.087-2.744 9.087-7.421 0-4.18-3.388-7.569-7.569-7.569zM312.828 118.386c-1.499 0-2.67-1.405-2.266-2.97.204-.79.851-1.436 1.641-1.64 1.564-.405 2.971.766 2.971 2.264v.003c0 1.294-1.049 2.343-2.344 2.343h-.002zm-.382-9c-3.608 0-6.446 3.297-5.666 7.043.457 2.19 2.228 3.962 4.418 4.418 3.746.782 7.043-2.056 7.043-5.664.002-3.2-2.59-5.796-5.79-5.797h-.005zM210.174 25.384c-1.585 0-2.822-1.486-2.395-3.141.216-.835.899-1.518 1.735-1.734 1.654-.427 3.14.81 3.14 2.395 0 1.37-1.108 2.481-2.477 2.482h-.003v-.002zm1.956-7.959c-4.584-1.519-8.801 2.218-8.144 6.708.392 2.688 2.625 4.847 5.324 5.161 3.713.432 6.862-2.457 6.864-6.083v-.002c0-2.585-1.59-4.972-4.044-5.784zM14.412 159.846c-3.56 0-6.445 2.886-6.445 6.445 0 3.56 2.885 6.446 6.445 6.446 3.56 0 6.445-2.886 6.445-6.446 0-3.56-2.885-6.445-6.445-6.445M272.87 181.387c-3.23 0-5.699 3.269-4.275 6.68.433 1.038 1.286 1.876 2.327 2.3 4.158 1.694 8.085-2.378 6.107-6.545-.72-1.515-2.304-2.435-3.98-2.435h-.18zM120.016 19.522c-4.816-1.85-9.375 1.562-9.533 6.092-.13 3.76 2.97 7.03 6.732 7.09 3.833.06 6.959-3.029 6.959-6.848v-.032c-.002-2.743-1.597-5.319-4.158-6.302"/>
        <g transform="translate(149 267.369)">
            <mask id="9dn44c10db" fill="#fff">
                <use xlink:href="#gye40fd2sa"/>
            </mask>
            <path fill="#B6D7F2" d="M5.183.018C2.07.018-.377 2.866.307 6.097c.396 1.877 1.91 3.392 3.788 3.788 3.23.683 6.079-1.764 6.079-4.876v-.003c0-2.755-2.233-4.988-4.99-4.988h-.001z" mask="url(#9dn44c10db)"/>
        </g>
        <path fill="#B6D7F2" d="M250.96 45.422c-3.234 0-5.856 2.623-5.856 5.857 0 3.235 2.622 5.858 5.857 5.858 3.234 0 5.857-2.623 5.857-5.858 0-3.234-2.623-5.857-5.857-5.857M43.503 90.959c1.84 0 3.333 1.492 3.333 3.333 0 1.84-1.492 3.334-3.333 3.334-1.841 0-3.333-1.493-3.333-3.334s1.492-3.333 3.333-3.333M314.486 80.386c-3.542 0-6.33 3.235-5.565 6.913.447 2.15 2.185 3.89 4.336 4.338 3.676.77 6.915-2.016 6.916-5.558v-.005c0-3.141-2.545-5.688-5.687-5.688M11.215 110.674c2.005 0 3.63 1.625 3.63 3.63s-1.625 3.63-3.63 3.63-3.63-1.625-3.63-3.63 1.625-3.63 3.63-3.63"/>
        <g transform="translate(155 .369)">
            <mask id="s9oghytj3d" fill="#fff">
                <use xlink:href="#6pazqmo5tc"/>
            </mask>
            <path fill="#B6D7F2" d="M8.78 6.471l2.278-2.279c.845-.738.932-2.02.194-2.867-.739-.844-2.022-.93-2.867-.193-.067.06-.129.121-.188.188L5.918 3.6 3.626 1.32c-.815-.772-2.1-.737-2.872.077-.743.784-.743 2.011 0 2.795l2.286 2.28L.761 8.75c-.794.793-.794 2.08 0 2.873.792.794 2.08.795 2.872.002l2.28-2.279 2.284 2.28c.747.835 2.031.907 2.868.16.837-.748.908-2.032.161-2.869-.052-.058-.108-.114-.168-.167L8.78 6.471z" mask="url(#s9oghytj3d)"/>
        </g>
        <g transform="translate(0 69.369)">
            <mask id="049xb2lmif" fill="#fff">
                <use xlink:href="#gz70cfwt5e"/>
            </mask>
            <path fill="#B6D7F2" d="M8.622 6.353l2.279-2.28c.814-.771.848-2.056.077-2.871-.772-.814-2.058-.85-2.872-.077-.026.025-.052.05-.077.077L5.749 3.48 3.469 1.2C2.654.43 1.368.466.596 1.28c-.743.783-.743 2.01 0 2.795l2.279 2.279-2.28 2.279c-.793.793-.793 2.08 0 2.873.793.794 2.079.795 2.873.002l2.282-2.28 2.279 2.28c.794.793 2.08.792 2.873-.002.793-.793.793-2.08-.001-2.873l-2.28-2.28z" mask="url(#049xb2lmif)"/>
        </g>
        <path fill="#B6D7F2" d="M277.456 214.906l1.931-1.931c.646-.697.604-1.787-.094-2.433-.66-.613-1.68-.613-2.34 0l-1.931 1.93-1.931-1.93c-.697-.647-1.787-.606-2.434.094-.611.66-.611 1.679 0 2.339l1.932 1.931-1.932 1.931c-.671.673-.671 1.76.001 2.433.673.67 1.762.67 2.433-.002l1.931-1.928 1.931 1.928c.671.672 1.761.672 2.433.001.672-.672.673-1.76.001-2.431l-1.931-1.931z"/>
    </g>
</svg>
