<svg width="81" height="80" viewBox="0 0 81 80" fill="none" xmlns="http://www.w3.org/2000/svg">
<path d="M40.5 80C62.5914 80 80.5 62.0914 80.5 40C80.5 17.9086 62.5914 0 40.5 0C18.4086 0 0.5 17.9086 0.5 40C0.5 62.0914 18.4086 80 40.5 80Z" fill="#E6EBED"/>
<mask id="mask0_9309_256065" style="mask-type:alpha" maskUnits="userSpaceOnUse" x="0" y="0" width="81" height="80">
<path d="M40.5 80C62.5914 80 80.5 62.0914 80.5 40C80.5 17.9086 62.5914 0 40.5 0C18.4086 0 0.5 17.9086 0.5 40C0.5 62.0914 18.4086 80 40.5 80Z" fill="#E6EBED"/>
</mask>
<g mask="url(#mask0_9309_256065)">
<path d="M81.5994 59.4082H2.20738C1.04868 59.4082 0.109375 60.3475 0.109375 61.5062V61.9002C0.109375 63.0589 1.04868 63.9982 2.20738 63.9982H81.5994C82.7581 63.9982 83.6974 63.0589 83.6974 61.9002V61.5062C83.6974 60.3475 82.7581 59.4082 81.5994 59.4082Z" fill="#DC464C"/>
<path d="M28.5568 56.291H41.4868C41.9132 56.291 42.3355 56.375 42.7294 56.5383C43.1234 56.7015 43.4813 56.9408 43.7828 57.2425C44.0842 57.5441 44.3233 57.9022 44.4863 58.2962C44.6493 58.6903 44.7331 59.1126 44.7328 59.539V59.915C44.7328 60.1134 44.654 60.3037 44.5137 60.4439C44.3734 60.5842 44.1832 60.663 43.9848 60.663H26.0588C25.8604 60.663 25.6702 60.5842 25.5299 60.4439C25.3896 60.3037 25.3108 60.1134 25.3108 59.915V59.539C25.3108 58.6781 25.6528 57.8525 26.2615 57.2438C26.8703 56.635 27.6959 56.293 28.5568 56.293V56.291Z" fill="#004A6A"/>
<path d="M38.8539 45.6191H31.1799C30.8993 45.6191 30.6719 45.8466 30.6719 46.1271V55.7831C30.6719 56.0637 30.8993 56.2911 31.1799 56.2911H38.8539C39.1344 56.2911 39.3619 56.0637 39.3619 55.7831V46.1271C39.3619 45.8466 39.1344 45.6191 38.8539 45.6191Z" fill="#002536"/>
<path d="M57.3825 21.1328H12.6125C10.463 21.1328 8.72046 22.8753 8.72046 25.0248V48.2808C8.72046 50.4303 10.463 52.1728 12.6125 52.1728H57.3825C59.5319 52.1728 61.2745 50.4303 61.2745 48.2808V25.0248C61.2745 22.8753 59.5319 21.1328 57.3825 21.1328Z" fill="#005C85"/>
<path d="M58.0068 22.2578H11.9888C11.0112 22.2578 10.2188 23.0503 10.2188 24.0278V49.2798C10.2188 50.2574 11.0112 51.0498 11.9888 51.0498H58.0068C58.9843 51.0498 59.7768 50.2574 59.7768 49.2798V24.0278C59.7768 23.0503 58.9843 22.2578 58.0068 22.2578Z" fill="#C7EFF2"/>
<path d="M11.7114 22.2812H58.2474C58.6484 22.2812 59.033 22.4405 59.3166 22.7241C59.6001 23.0077 59.7594 23.3922 59.7594 23.7932V24.8512H10.2014V23.7992C10.2006 23.6004 10.2391 23.4033 10.3146 23.2193C10.3901 23.0352 10.5012 22.8679 10.6414 22.7269C10.7817 22.5859 10.9484 22.474 11.132 22.3975C11.3156 22.321 11.5125 22.2815 11.7114 22.2812Z" fill="#005C85"/>
<path d="M12.125 24.3145C12.5392 24.3145 12.875 23.9787 12.875 23.5645C12.875 23.1502 12.5392 22.8145 12.125 22.8145C11.7108 22.8145 11.375 23.1502 11.375 23.5645C11.375 23.9787 11.7108 24.3145 12.125 24.3145Z" fill="#C7EFF2"/>
<path d="M14.7986 24.3145C15.2128 24.3145 15.5486 23.9787 15.5486 23.5645C15.5486 23.1502 15.2128 22.8145 14.7986 22.8145C14.3844 22.8145 14.0486 23.1502 14.0486 23.5645C14.0486 23.9787 14.3844 24.3145 14.7986 24.3145Z" fill="#C7EFF2"/>
<path d="M17.4727 24.3164C17.8869 24.3164 18.2227 23.9806 18.2227 23.5664C18.2227 23.1522 17.8869 22.8164 17.4727 22.8164C17.0584 22.8164 16.7227 23.1522 16.7227 23.5664C16.7227 23.9806 17.0584 24.3164 17.4727 24.3164Z" fill="#C7EFF2"/>
<path d="M49.8029 27.3125H43.8169C41.0953 27.3125 38.8889 29.5188 38.8889 32.2405V41.0085C38.8889 43.7302 41.0953 45.9365 43.8169 45.9365H49.8029C52.5246 45.9365 54.7309 43.7302 54.7309 41.0085V32.2405C54.7309 29.5188 52.5246 27.3125 49.8029 27.3125Z" fill="#49CFD6"/>
<path d="M33.9446 29.666H16.5266C15.9864 29.666 15.5486 30.1039 15.5486 30.644V30.828C15.5486 31.3681 15.9864 31.806 16.5266 31.806H33.9446C34.4847 31.806 34.9226 31.3681 34.9226 30.828V30.644C34.9226 30.1039 34.4847 29.666 33.9446 29.666Z" fill="#008A95"/>
<path d="M33.9446 34.0547H16.5266C15.9864 34.0547 15.5486 34.4926 15.5486 35.0327V35.2167C15.5486 35.7568 15.9864 36.1947 16.5266 36.1947H33.9446C34.4847 36.1947 34.9226 35.7568 34.9226 35.2167V35.0327C34.9226 34.4926 34.4847 34.0547 33.9446 34.0547Z" fill="#008A95"/>
<path d="M33.1686 39.0859H17.3026C16.3339 39.0859 15.5486 39.8712 15.5486 40.8399V43.7539C15.5486 44.7226 16.3339 45.5079 17.3026 45.5079H33.1686C34.1373 45.5079 34.9226 44.7226 34.9226 43.7539V40.8399C34.9226 39.8712 34.1373 39.0859 33.1686 39.0859Z" fill="#49CFD6"/>
<path d="M62.696 40.4191C63.0313 38.5783 63.8735 36.8674 65.128 35.4791C65.298 35.2971 65.506 35.1091 65.746 35.1451C65.986 35.1811 66.1801 35.4751 66.3101 35.7451C67.0881 37.3231 67.7461 39.0111 67.9101 40.7851C68.0981 42.8391 66.524 49.0071 63.684 46.4951C63.11 45.9891 62.84 45.1711 62.684 44.3811C62.437 43.0716 62.441 41.7271 62.696 40.4191Z" fill="#008A95"/>
<path d="M66.7704 42.1314C68.2851 40.1623 70.3368 38.6732 72.6784 37.8435C73.0004 37.7315 73.3745 37.6435 73.6645 37.8155C73.9865 38.0155 74.0485 38.4495 74.0645 38.8275C74.2005 41.0995 74.1165 43.4275 73.3425 45.5675C72.4425 48.0455 66.9704 54.2515 64.6724 49.7055C64.2084 48.7875 64.3105 47.6874 64.5525 46.6874C64.9661 45.0308 65.7216 43.4789 66.7704 42.1314Z" fill="#008A95"/>
<path d="M63.8474 42.8654C62.3328 40.8963 60.281 39.4072 57.9394 38.5774C57.6174 38.4654 57.2434 38.3774 56.9534 38.5514C56.6314 38.7514 56.5694 39.1834 56.5534 39.5514C56.4174 41.8234 56.5014 44.1514 57.2754 46.2914C58.1754 48.7694 63.6474 54.9754 65.9454 50.4294C66.4094 49.5114 66.3074 48.4114 66.0654 47.4134C65.6509 45.7595 64.8954 44.2104 63.8474 42.8654Z" fill="#006870"/>
<path d="M58.0039 50.5781H72.2779V54.8001C72.2779 56.5299 71.5908 58.1888 70.3677 59.4119C69.1445 60.635 67.4857 61.3221 65.7559 61.3221H64.5239C62.7945 61.3216 61.1361 60.6342 59.9134 59.4112C58.6908 58.1881 58.0039 56.5295 58.0039 54.8001V50.5781Z" fill="#FF7B80"/>
</g>
</svg>
