<svg width="81" height="80" viewBox="0 0 81 80" fill="none" xmlns="http://www.w3.org/2000/svg">
<path d="M40.5 80C62.5914 80 80.5 62.0914 80.5 40C80.5 17.9086 62.5914 0 40.5 0C18.4086 0 0.5 17.9086 0.5 40C0.5 62.0914 18.4086 80 40.5 80Z" fill="#E6EBED"/>
<mask id="mask0_9309_256045" style="mask-type:alpha" maskUnits="userSpaceOnUse" x="0" y="0" width="81" height="80">
<path d="M40.5 80C62.5914 80 80.5 62.0914 80.5 40C80.5 17.9086 62.5914 0 40.5 0C18.4086 0 0.5 17.9086 0.5 40C0.5 62.0914 18.4086 80 40.5 80Z" fill="#E6EBED"/>
</mask>
<g mask="url(#mask0_9309_256045)">
<path d="M-2.43945 81.8003C-2.84945 75.6303 -1.11347 64.8143 0.838529 59.3823C5.61453 46.0883 16.3546 39.0203 25.9626 42.1263C37.9926 46.0143 41.6766 64.5083 43.8686 80.8323L-2.43945 81.8003Z" fill="#FFC1C1"/>
<path d="M29.6192 40.9108C29.1869 41.5846 28.9007 42.3415 28.7792 43.1328C28.7189 43.5295 28.7385 43.9343 28.8368 44.3234C28.935 44.7125 29.1099 45.0781 29.3512 45.3988C28.4272 46.1988 27.1092 46.3848 25.9232 46.1448C24.7372 45.9048 23.6532 45.2868 22.6252 44.6248C22.1172 44.2968 21.5992 43.9368 21.2952 43.4008C22.4382 42.2624 23.1248 40.7448 23.2252 39.1348C25.3812 39.9094 27.6659 40.2625 29.9552 40.1748" fill="#005B81"/>
<path d="M22.3959 20.6916C26.0619 20.0096 30.0599 21.9696 31.7679 25.2916C32.8259 27.3436 33.0318 29.7336 32.9318 32.0416C32.85 33.9109 32.582 35.7674 32.1318 37.5836C31.9318 38.4176 31.6619 39.2796 31.0599 39.8916C30.2259 40.7336 28.9379 40.9176 27.7519 40.8916C23.3519 40.8016 18.9979 38.2676 17.0619 34.3156C15.1259 30.3636 15.9119 25.1536 19.1639 22.1896C20.1139 21.3236 21.3199 20.6316 22.6059 20.6616" fill="#005B81"/>
<path d="M29.9549 44.9152C29.3549 44.4872 28.6168 43.9971 28.6368 43.2331C28.6488 42.8111 28.9029 42.4472 29.1229 42.0952C30.3109 40.1832 30.6389 37.5572 29.5229 35.5892C29.2792 35.1685 28.9923 34.7744 28.6669 34.4132C28.3963 34.1047 28.1913 33.7443 28.0644 33.3541C27.9375 32.9639 27.8914 32.5519 27.9288 32.1433C27.9662 31.7346 28.0864 31.3379 28.2821 30.9772C28.4777 30.6165 28.7447 30.2994 29.0669 30.0452C29.2669 29.8872 29.4669 29.7272 29.6569 29.5652C30.3166 29.0491 30.8945 28.4362 31.3709 27.7472C32.3989 26.1472 32.2869 23.9332 31.2449 22.3572C31.2449 22.3312 31.2289 22.3031 31.2189 22.2791C30.6329 20.7851 28.5108 19.9812 26.7888 19.6912L25.1569 19.4132C25.0669 19.3992 24.9788 19.3852 24.8888 19.3752C23.0708 19.1752 21.1128 19.6351 19.4768 20.3291C16.7448 21.4851 15.0648 24.1051 14.1908 26.5291C13.7048 27.8791 13.5129 29.2852 13.2489 30.6712C11.3822 33.0925 9.51552 35.5158 7.64885 37.9412C6.83086 39.0012 6.00287 40.0852 5.51487 41.3552C4.62487 43.6672 5.00885 46.4212 6.29285 48.5152C6.59685 49.0092 6.95285 49.4872 7.09285 50.0592C7.15872 50.374 7.17961 50.6965 7.15486 51.0172C6.99838 51.5964 6.96364 52.2018 7.05286 52.7952C7.09536 53.0598 7.16576 53.3193 7.26287 53.5692C7.94887 56.5832 10.6629 59.0752 13.6169 59.0552C15.0169 59.0452 16.3828 58.5512 17.7808 58.4352C20.8368 58.1772 23.8789 59.7132 26.9089 59.2351C29.8349 58.7672 32.3749 56.2531 33.0249 53.1831C33.6749 50.1131 32.4089 46.6732 29.9549 44.9152Z" fill="#FF6565"/>
<path d="M57.1309 39.8018C57.4992 40.7856 57.702 41.8237 57.7309 42.8738C57.7409 43.9638 57.4809 45.1257 56.9089 45.9397C57.7449 47.0777 59.0429 47.3878 60.2569 47.1138C61.4709 46.8398 62.6209 46.0457 63.7209 45.1877C64.2669 44.7637 64.8249 44.2937 65.1869 43.5877C64.1869 42.0297 63.6489 39.8738 63.7269 37.6758C61.5755 38.6215 59.2194 39.0061 56.8789 38.7938" fill="#49CFD6"/>
<path d="M60.6611 19.0625C53.2611 19.8505 50.9971 25.6005 50.7791 31.3825C50.7131 33.1065 50.6511 34.8565 51.0931 36.5145C51.5351 38.1725 52.5531 39.7545 54.1911 40.5485C55.2631 41.0685 56.5151 41.2165 57.7451 41.2825C58.5551 41.3265 59.4011 41.3325 60.1451 41.0185C60.7206 40.7494 61.2393 40.3726 61.6731 39.9085C62.6162 38.9855 63.4546 37.9613 64.1731 36.8545" fill="#49CFD6"/>
<path d="M86.0796 79.6622C86.3216 74.0122 84.2796 64.1802 82.1916 59.2782C77.0536 47.2782 66.1256 41.1362 56.6076 44.2602C44.6896 48.1742 41.5116 65.1822 39.7656 80.1622L86.0796 79.6622Z" fill="#005C85"/>
<path d="M54.029 32.7603C54.673 33.5943 54.841 34.2543 54.993 35.0643C55.1097 35.1853 55.2186 35.3135 55.319 35.4483C54.919 34.8943 55.425 35.5623 55.519 35.6723C55.675 35.8403 55.841 35.9943 56.005 36.1543L56.153 36.2943C56.289 36.3903 56.425 36.4843 56.565 36.5723C56.753 36.691 56.945 36.801 57.141 36.9023C57.277 36.9723 57.407 37.0323 57.459 37.0563C57.8008 37.1839 58.1493 37.2927 58.503 37.3823C58.721 37.4363 58.941 37.4743 59.159 37.5243L59.239 37.5423H59.267C59.723 37.5783 60.175 37.6063 60.631 37.6023C61.087 37.5983 61.491 37.5623 61.923 37.5263C61.987 37.5263 62.065 37.5083 62.143 37.4943C62.333 37.4603 62.523 37.4243 62.711 37.3843C63.165 37.2863 63.613 37.1703 64.055 37.0323C64.275 36.9643 64.493 36.8923 64.709 36.8143L65.037 36.6923L65.373 36.5463C65.573 36.4523 65.773 36.3463 65.973 36.2483C66.361 36.043 66.739 35.8203 67.107 35.5803C67.285 35.4623 67.457 35.3363 67.633 35.2163C66.957 35.6763 67.745 35.1043 67.845 35.0163C68.277 34.6363 68.693 34.2423 69.089 33.8163C69.363 33.5303 69.621 33.2323 69.873 32.9303C69.979 32.7303 70.073 32.5303 70.167 32.3303C70.5332 31.4558 70.6639 30.5007 70.5464 29.56C70.4288 28.6193 70.0671 27.7258 69.497 26.9683C69.247 26.6383 68.949 26.3083 68.907 25.9063C68.845 25.3063 69.375 24.7483 69.281 24.1523C69.081 22.9023 66.845 23.2543 66.027 22.2563C65.611 21.7503 65.679 21.0203 65.375 20.4563C64.707 19.2003 62.831 19.3163 61.345 19.2663C61.053 19.2563 60.731 19.2183 60.545 19.0123C60.395 18.8523 60.345 18.6243 60.203 18.4623C60.0318 18.3115 59.8193 18.2154 59.593 18.1863C58.5347 17.9654 57.4418 17.9693 56.3852 18.1977C55.3285 18.4261 54.3316 18.874 53.459 19.5123C52.6248 20.1374 51.9443 20.9445 51.4691 21.8723C50.9939 22.8001 50.7367 23.8241 50.717 24.8663C50.717 26.6663 51.405 28.9543 52.267 30.5723C52.717 31.4283 53.449 32.0023 54.029 32.7603Z" fill="#005C85"/>
<path d="M54.1021 29.9158C54.258 29.8715 54.4211 29.8585 54.5821 29.8778C55.0461 29.9478 55.3681 30.3938 55.4881 30.8458C55.6881 31.5758 55.4881 32.3678 55.1081 33.0258C54.702 33.6659 54.2108 34.2479 53.6481 34.7558C53.6801 34.7238 53.1301 33.3738 53.0841 33.2058C52.9481 32.7098 52.824 32.1898 52.728 31.6838C52.56 30.7998 53.2661 30.1278 54.1021 29.9158Z" fill="#49CFD6"/>
<path d="M67.2306 34.8672C66.4786 35.4212 66.3066 36.3732 66.4646 37.2112C66.5166 37.4872 66.5946 37.7932 66.4246 38.0352C66.1526 38.4232 65.4866 38.3652 64.9586 38.3072C64.8654 38.2906 64.7696 38.2954 64.6786 38.3212C64.5106 38.3872 64.4786 38.5692 64.3966 38.7212C64.1366 39.2332 63.3506 39.3432 62.6946 39.3452C61.9272 39.4078 61.1635 39.1865 60.5486 38.7232L57.5486 36.8352" fill="#005C85"/>
</g>
</svg>
