<svg width="15" height="16" viewBox="0 0 15 16" fill="none" xmlns="http://www.w3.org/2000/svg">
<path fill-rule="evenodd" clip-rule="evenodd" d="M3.75 5.59375C3.75 3.45835 5.44136 1.75 7.5 1.75C9.55864 1.75 11.25 3.45835 11.25 5.59375C11.25 6.16098 11.1305 6.69771 10.9168 7.18036L7.5 13.5524L4.08322 7.18036C3.8695 6.69771 3.75 6.16098 3.75 5.59375ZM7.5 0.5C4.72615 0.5 2.5 2.79311 2.5 5.59375C2.5 6.34801 2.66131 7.06583 2.95161 7.71189C2.95757 7.72518 2.964 7.73825 2.97089 7.75108L6.39838 14.1431C6.86974 15.0222 8.13026 15.0222 8.60162 14.1431L12.0291 7.75108C12.036 7.73825 12.0424 7.72518 12.0484 7.71189C12.3387 7.06583 12.5 6.34801 12.5 5.59375C12.5 2.79311 10.2738 0.5 7.5 0.5ZM7.5 7.14062C8.4665 7.14062 9.25 6.37111 9.25 5.42188C9.25 4.47264 8.4665 3.70312 7.5 3.70312C6.5335 3.70312 5.75 4.47264 5.75 5.42188C5.75 6.37111 6.5335 7.14062 7.5 7.14062Z" fill="#51585D"/>
</svg>