<svg width="24" height="24" viewBox="0 0 24 24" fill="none" xmlns="http://www.w3.org/2000/svg">
<path fill-rule="evenodd" clip-rule="evenodd" d="M2 12C2 6.47715 6.47715 2 12 2C17.5228 2 22 6.47715 22 12C22 14.8361 20.8207 17.395 18.923 19.2161C17.1253 20.9413 14.6873 22 12 22C6.47715 22 2 17.5228 2 12ZM12 0C5.37258 0 0 5.37258 0 12C0 18.6274 5.37258 24 12 24C15.2239 24 18.1526 22.7274 20.3078 20.6592C22.5822 18.4765 24 15.403 24 12C24 5.37258 18.6274 0 12 0ZM19.2096 8.70464C19.5987 8.31276 19.5965 7.67959 19.2046 7.29043C18.8128 6.90127 18.1796 6.90348 17.7904 7.29536L9.5625 15.5808L6.20957 12.2045C5.82041 11.8126 5.18724 11.8104 4.79536 12.1995C4.40348 12.5887 4.40127 13.2218 4.79043 13.6137L8.14337 16.9901C8.92553 17.7777 10.1995 17.7777 10.9816 16.9901L19.2096 8.70464Z" fill="#161B1D"/>
</svg>
