<svg width="15" height="16" viewBox="0 0 15 16" fill="none" xmlns="http://www.w3.org/2000/svg">
<g clip-path="url(#clip0_1_40044)">
<path fill-rule="evenodd" clip-rule="evenodd" d="M3.59889 0.854115C3.74858 1.16515 3.61778 1.53864 3.30674 1.68832L1.875 2.37735V4.39523C1.875 6.51561 3.59391 8.23452 5.71429 8.23452C7.83466 8.23452 9.55357 6.51561 9.55357 4.39523V2.37735L8.12183 1.68832C7.81079 1.53864 7.68 1.16515 7.82968 0.854115C7.97937 0.543081 8.35285 0.412282 8.66389 0.561967L10.4496 1.42134C10.666 1.52548 10.8036 1.74438 10.8036 1.98452V4.39523C10.8036 6.99437 8.85518 9.13844 6.33929 9.44652V11.7501C6.33929 13.1309 7.45857 14.2501 8.83929 14.2501H9.38616C10.2829 14.2501 11.0385 13.6458 11.2679 12.8221C10.2871 12.5339 9.55357 11.6525 9.55357 10.5783C9.55357 9.26155 10.6556 8.23452 11.9643 8.23452C13.273 8.23452 14.375 9.26155 14.375 10.5783C14.375 11.6958 13.5812 12.6046 12.541 12.854C12.2774 14.3576 10.9652 15.5001 9.38616 15.5001H8.83929C6.76822 15.5001 5.08929 13.8212 5.08929 11.7501V9.44652C2.5734 9.13844 0.625 6.99437 0.625 4.39523V1.98452C0.625 1.74438 0.762586 1.52548 0.978971 1.42134L2.76469 0.561967C3.07572 0.412282 3.44921 0.543081 3.59889 0.854115ZM11.9643 9.48452C11.3005 9.48452 10.8036 9.99651 10.8036 10.5783C10.8036 11.16 11.3005 11.672 11.9643 11.672C12.6281 11.672 13.125 11.16 13.125 10.5783C13.125 9.99651 12.6281 9.48452 11.9643 9.48452Z" fill="#51585D"/>
</g>
<defs>
<clipPath id="clip0_1_40044">
<rect width="15" height="15" fill="white" transform="translate(0 0.5)"/>
</clipPath>
</defs>
</svg>