<svg width="15" height="16" viewBox="0 0 15 16" fill="none" xmlns="http://www.w3.org/2000/svg">
<path fill-rule="evenodd" clip-rule="evenodd" d="M1.25 7.99938C1.25 4.54794 4.04794 1.75 7.49938 1.75C10.9508 1.75 13.7488 4.54794 13.7488 7.99938C13.7488 9.77175 13.0118 11.3709 11.8258 12.509C10.7024 13.5871 9.17879 14.2488 7.49938 14.2488C4.04794 14.2488 1.25 11.4508 1.25 7.99938ZM7.49938 0.5C3.35759 0.5 0 3.85759 0 7.99938C0 12.1412 3.35759 15.4988 7.49938 15.4988C9.51414 15.4988 11.3444 14.7034 12.6913 13.4109C14.1127 12.0469 14.9988 10.1261 14.9988 7.99938C14.9988 3.85759 11.6412 0.5 7.49938 0.5ZM8.1392 3.71768C8.1392 3.37251 7.85938 3.09268 7.5142 3.09268C7.16903 3.09268 6.8892 3.37251 6.8892 3.71768V8.01417C6.8892 8.35935 7.16903 8.63917 7.5142 8.63917H10.0921C10.4373 8.63917 10.7171 8.35935 10.7171 8.01417C10.7171 7.66899 10.4373 7.38917 10.0921 7.38917H8.1392V3.71768Z" fill="#51585D"/>
</svg>