<svg width="32px" height="32px" viewBox="0 0 32 32" xmlns="http://www.w3.org/2000/svg" xmlns:xlink="http://www.w3.org/1999/xlink">
  <title>
    34A8E98B-62ED-4216-98D6-E986304F4C2E
  </title>
  <defs>
    <path id="a" d="M8 16H0V0h16v16z"></path>
  </defs>
  <g fill="none" fill-rule="evenodd">
    <rect fill="#14658E" width="32" height="32" rx="3"></rect>
    <g transform="translate(8 8)">
      <mask id="b" fill="#fff">
        <use xlink:href="#a"></use>
      </mask>
      <path d="M7.953 14.487v-.003c1.186 0 2.373.027 3.558-.01.878-.025 1.675-.303 2.27-1.006.488-.577.692-1.267.698-1.997.022-2.29.045-4.584 0-6.875-.037-1.92-1.14-3.018-3.058-3.077-1.958-.06-3.918-.062-5.877-.06-.597.002-1.205.048-1.787.17-1.35.28-2.2 1.33-2.23 2.838-.044 2.33-.05 4.664-.002 6.995.04 1.865 1.165 2.956 3.03 3.02 1.133.04 2.266.007 3.4.007M0 11.2V4.8c.025-.183.064-.364.074-.548C.196 2.187 1.507.626 3.508.192 3.932.103 4.368.063 4.8 0h6.4c.182.026.363.064.546.075 2.038.12 3.557 1.373 4.032 3.36.113.473.15.963.222 1.445v6.16c-.027.235-.066.47-.08.706-.116 2.03-1.372 3.56-3.35 4.03-.5.117-1.02.15-1.53.224H4.88c-.21-.027-.417-.067-.627-.08C2.18 15.803.6 14.466.183 12.456.1 12.04.06 11.618 0 11.2" fill="#FFF" mask="url(#c)"></path>
    </g>
    <path d="M15.984 18.65c1.49.005 2.665-1.163 2.666-2.648 0-1.472-1.157-2.646-2.618-2.655-1.496-.01-2.678 1.146-2.685 2.627-.008 1.492 1.155 2.672 2.637 2.676m-4.09-2.67c.015-2.294 1.844-4.102 4.133-4.085 2.29.017 4.097 1.853 4.073 4.142-.023 2.277-1.838 4.07-4.11 4.063-2.293-.007-4.11-1.834-4.095-4.12M21.22 11.714c.008.536-.41.974-.94.983-.516.01-.972-.432-.984-.952-.012-.522.42-.96.955-.968.552-.007.965.39.97.937" fill="#FFF"></path>
  </g>
</svg>