<svg width="32" height="32" viewBox="0 0 32 32" xmlns="http://www.w3.org/2000/svg" xmlns:xlink="http://www.w3.org/1999/xlink">
  <defs>
    <path id="a" d="M3.607.007H0V3.26h3.607V.007z"></path>
  </defs>
  <g fill="none" fill-rule="evenodd">
    <rect fill="#14658E" width="32" height="32" rx="3"></rect>
    <g transform="translate(9 9.035)">
      <mask id="b" fill="#fff">
        <use xlink:href="#a"></use>
      </mask>
      <path d="M0 1.42C.065 1.155.137.896.31.676c.397-.503.942-.682 1.567-.67.55.012 1.032.187 1.38.623.668.835.405 2.308-1.02 2.58-.594.115-1.164.043-1.655-.344-.307-.243-.486-.562-.555-.94C.022 1.897.01 1.87 0 1.845V1.42" fill="#FFF" mask="url(#b)"></path>
    </g>
    <path d="M14.18 22.98v-9.396h3.196v1.307c.05-.06.08-.09.1-.122.678-.97 1.624-1.423 2.818-1.41.694.008 1.35.147 1.95.505.61.366 1.03.888 1.308 1.525.304.697.405 1.433.406 2.184.005 1.768.002 3.535.002 5.302 0 .033-.004.065-.007.107H20.75v-.168c0-1.682 0-3.363-.007-5.045-.002-.387-.065-.767-.235-1.122-.26-.544-.766-.842-1.384-.82-.8.03-1.453.5-1.665 1.242-.07.242-.076.507-.077.762-.006 1.657-.003 3.315-.003 4.973v.177h-3.2zM9.2 13.584h3.186v9.398c-.05.003-.093.008-.136.008-.968 0-1.937-.002-2.905.003-.122 0-.156-.033-.156-.15.002-3.04.002-6.08.002-9.12 0-.042.004-.084.007-.14" fill="#FFF"></path>
  </g>
</svg>