
<svg width="32" height="32" viewBox="0 0 32 32" xmlns="http://www.w3.org/2000/svg">
  <g fill="none" fill-rule="evenodd">
    <rect fill="#14658E" width="32" height="32" rx="3"></rect>
    <path d="M22.887 10.29c-.63.37-1.33.637-2.073.78-.594-.624-1.44-1.013-2.38-1.013-1.802 0-3.26 1.437-3.26 3.21 0 .252.028.497.082.732-2.71-.134-5.115-1.413-6.723-3.356-.28.475-.442 1.026-.442 1.615 0 1.113.68 2.096 1.555 2.67-.534-.015-1.374-.16-1.374-.4v.04c0 1.555 1.023 2.853 2.515 3.15-.275.072-.613.112-.912.112-.21 0-.44-.02-.64-.058.417 1.275 1.607 2.204 3.036 2.23-1.12.86-2.53 1.374-4.06 1.374-.264 0-.526-.015-.78-.044 1.443.91 3.156 1.442 4.997 1.442 6 0 9.28-4.893 9.28-9.136 0-.138-.002-.278-.008-.415.635-.453 1.19-1.018 1.626-1.663-.585.256-1.214.428-1.874.505.674-.397 1.19-1.025 1.435-1.776" fill="#FFF"></path>
  </g>
</svg>

