<svg xmlns="http://www.w3.org/2000/svg" xmlns:xlink="http://www.w3.org/1999/xlink" width="39" height="42" viewBox="0 0 39 42">
    <defs>
        <path id="alehccgeya" d="M0 0.311L38.697 0.311 38.697 40.021 0 40.021z"/>
    </defs>
    <g fill="none" fill-rule="evenodd">
        <g transform="translate(0 .183)">
            <mask id="51agh8snob" fill="#fff">
                <use xlink:href="#alehccgeya"/>
            </mask>
            <path fill="#FFF" d="M0 20.166c0 10.966 8.662 19.855 19.348 19.855 10.686 0 19.349-8.89 19.349-19.855S30.034.311 19.348.311 0 9.201 0 20.166" mask="url(#51agh8snob)"/>
        </g>
        <path fill="#000" fill-opacity=".155" d="M19.546 9.87c-4.188 0-7.585 3.49-7.585 7.79 0 4.303 3.397 7.787 7.585 7.787 4.193 0 7.594-3.484 7.594-7.788 0-4.298-3.4-7.789-7.594-7.789M23.966 26.78h-8.835c-4.248 0-7.689 3.49-7.689 7.85 0 .36-.107.934 0 1.267 3.209 2.822 7.55 4.307 12.105 4.307 4.55 0 8.759-1.601 11.966-4.414.11-.338.131-.795.131-1.16 0-4.36-3.425-7.85-7.678-7.85"/>
        <g transform="translate(27 30)">
            <circle cx="5.5" cy="5.5" r="5.5" fill="#CB0606" fill-rule="nonzero"/>
            <path fill="#FFF" d="M6.05 6.6h-1.1l-.367-4.767h1.834L6.05 6.6zM4.693 8.533c0-.243.077-.442.23-.597.153-.155.352-.233.598-.233.242 0 .44.078.593.233.153.155.23.354.23.597 0 .24-.076.436-.228.59-.15.153-.35.23-.595.23-.25 0-.45-.077-.6-.23-.152-.154-.228-.35-.228-.59z"/>
        </g>
    </g>
</svg>
