<svg width="32px" height="32px" viewBox="0 0 32 32" xmlns="http://www.w3.org/2000/svg" xmlns:xlink="http://www.w3.org/1999/xlink">
  <title>
    Group 2
  </title>
  <defs>
    <path id="x" d="M19.773 21.548v23.91H0V.024h19.773v21.525H0v23.91h19.773V21.55z"></path>
  </defs>
  <g fill="none" fill-rule="evenodd">
    <rect fill="#14658E" width="32" height="32" rx="3"></rect>
    <g transform="translate(7 7.007)">
      <mask id="y" fill="#fff">
        <use xlink:href="#x"></use>
      </mask>
      <path d="M10.486 13.837c0-.46.003-.922-.003-1.383-.002-.112.02-.192.132-.23.118-.04.234-.105.355-.12.156-.016.244.073.27.233.01.072.012.148.012.222V15.235c-.014.34-.196.454-.512.32-.245-.106-.254-.12-.254-.38v-1.34M14.56 13.284c0-.295-.015-.582.003-.866.014-.218.17-.325.403-.318.234.006.368.118.377.345.01.276.002.552.002.84h-.786z" fill="#FFF" mask="url(#y)"></path>
      <path d="M1.72 9.645v.67c0 .2 0 .2.2.2h.88v5.825h1.172v-.185c0-1.824.002-3.647-.003-5.47 0-.14.04-.178.172-.173.275.01.55 0 .824.004.103.002.14-.033.136-.137-.007-.19-.01-.378 0-.565.01-.143-.044-.173-.174-.173-1.01.005-2.022.003-3.033.003H1.72zm12.852 4.362h1.718c.078 0 .146.004.145-.11-.005-.48.012-.963-.01-1.442-.023-.486-.262-.84-.72-1.03-.39-.162-.795-.16-1.2-.09-.625.108-.994.515-1.02 1.155-.025.58-.018 1.16-.018 1.738 0 .337-.01.676.02 1.01.045.466.253.835.703 1.033.288.127.587.15.893.135.313-.015.61-.082.874-.27.467-.33.55-.944.452-1.535h-1.06v.165c-.006.174-.003.348-.02.52-.02.2-.17.32-.376.32-.236-.003-.372-.103-.38-.324-.01-.413-.002-.83-.002-1.273zM8.225 16.35c.006-.036.012-.055.012-.074 0-1.605 0-3.21.002-4.816 0-.1-.046-.115-.127-.114-.25.003-.5 0-.75 0-.216.002-.216.002-.216.216 0 1.234 0 2.468-.002 3.702 0 .058-.013.142-.05.17-.09.065-.194.12-.3.15-.252.074-.388-.03-.405-.293-.005-.063-.005-.127-.005-.192v-3.553c0-.197 0-.197-.188-.198-.24 0-.48.008-.72-.003-.14-.006-.184.033-.183.18.006 1.055.002 2.11.003 3.166 0 .282-.002.565.006.847.01.306.06.598.367.757.326.168.654.157.97-.025.172-.1.333-.22.507-.334.025.117.044.225.074.33.01.032.052.08.08.08.306.005.614.003.925.003zm2.257-6.705c-.316 0-.615.006-.913-.003-.132-.003-.175.03-.175.172.005 2.12.003 4.24.003 6.36v.164h1.098v-.433c.172.125.325.25.49.355.487.313 1.318.154 1.336-.63.002-.063.012-.127.012-.192.002-1 .004-2 .003-3 0-.14-.014-.278-.02-.416-.025-.575-.527-.765-.908-.72-.303.033-.538.2-.765.385-.046.038-.093.074-.163.13V9.644zM0 11.295c.036-.153.067-.308.108-.46.307-1.145 1.028-1.908 2.134-2.28.33-.11.693-.154 1.042-.155 3.954-.01 7.91-.007 11.864-.003 1.04 0 1.91.395 2.573 1.213.35.43.566.924.66 1.47.013.073.035.143.052.215v3.508c-.018.076-.04.15-.055.228-.062.344-.166.675-.34.976-.634 1.095-1.582 1.677-2.837 1.68-3.99.01-7.98.002-11.968.005-1.5.003-2.813-1.033-3.142-2.5L0 14.803v-3.508z" fill="#FFF" mask="url(#y)"></path>
    </g>
    <path d="M22.04 14.403c-.34 0-.664.004-.987-.004-.04-.002-.097-.058-.11-.1-.036-.11-.05-.23-.077-.355-.203.134-.39.267-.585.385-.37.225-.915.185-1.202-.112-.106-.11-.178-.275-.21-.427-.043-.215-.046-.442-.046-.664-.004-1.343 0-2.685-.006-4.028 0-.148.034-.2.187-.192.284.012.57.01.854 0 .123-.003.157.04.156.16-.004 1.324-.002 2.647-.002 3.97 0 .08 0 .158.008.237.022.236.143.35.373.305.154-.03.3-.114.44-.19.03-.02.036-.106.036-.16.002-1.374.002-2.746.002-4.118v-.19h1.172v5.483zM10.118 7.03c.444 0 .87-.002 1.297.004.033 0 .086.057.096.097.198.787.39 1.575.582 2.363l.07.296c.016 0 .032 0 .048.003.037-.164.072-.328.112-.49.177-.726.355-1.45.538-2.175.01-.038.065-.093.1-.093.412-.007.823-.005 1.257-.005-.052.164-.096.314-.145.46-.364 1.11-.717 2.22-1.102 3.32-.137.39-.175.776-.17 1.18.01.737.002 1.475.002 2.213v.19h-1.27v-.175c0-.723-.02-1.447.006-2.17.02-.51-.085-.985-.248-1.462-.39-1.14-.76-2.288-1.14-3.433-.01-.032-.016-.065-.032-.123M16.372 11.67v-.09c-.005-.493 0-.988-.017-1.482-.007-.236-.177-.367-.43-.37-.214-.006-.372.126-.406.345-.015.088-.02.177-.02.266v2.64c0 .09.005.18.022.266.045.24.196.354.44.343.234-.01.375-.147.398-.39.008-.08.01-.16.01-.238.002-.43.002-.86.002-1.292m1.177-.014c0 .48.008.96-.003 1.44-.018.743-.436 1.242-1.188 1.343-.437.057-.87.055-1.286-.126-.476-.207-.683-.6-.742-1.09-.02-.163-.02-.327-.02-.49-.003-.758-.012-1.516.004-2.273.005-.262.04-.535.12-.785.124-.38.415-.62.794-.73.544-.16 1.09-.156 1.61.08.45.204.67.593.694 1.072.027.518.006 1.04.006 1.56h.01" fill="#FFF"></path>
  </g>
</svg>